<svg xmlns="http://www.w3.org/2000/svg" width="165" height="30" viewBox="0 0 360 66" fill="none">
  <path d="M54.6064 27.6505C53.4637 30.2099 51.8148 32.516 49.7572 34.4326C50.2977 34.3629 50.8422 34.3278 51.3872 34.3275C54.3945 34.3307 57.2986 35.4143 59.5617 37.3775C61.8247 39.3408 63.2931 42.0506 63.695 45.0049C64.0968 47.9592 63.4048 50.9577 61.7471 53.445C60.0894 55.9322 57.5784 57.7395 54.6794 58.5321C51.7803 59.3247 48.6897 59.0488 45.9802 57.7555C43.2707 56.4622 41.1259 54.2392 39.9432 51.4984C38.7605 48.7576 38.6201 45.6847 39.548 42.8491C40.4758 40.0135 42.4091 37.6074 44.9896 36.0766L45.283 35.9069C48.6607 33.9241 51.3585 30.9797 53.0253 27.4566C53.2453 26.984 53.4532 26.5033 53.6365 26.0105C54.7538 23.0294 55.1103 19.8206 54.6743 16.6699C54.2382 13.5192 53.0232 10.5242 51.1373 7.95142C49.2513 5.37868 46.7531 3.30799 43.8647 1.92365C40.9764 0.539305 37.7876 -0.115758 34.5822 0.0167573C31.3767 0.149273 28.2541 1.06526 25.492 2.68319C22.73 4.30112 20.4143 6.57082 18.7511 9.29029C17.0878 12.0098 16.1286 15.0947 15.9587 18.2704C15.7888 21.4462 16.4136 24.6144 17.7774 27.493C17.2504 27.5387 16.7288 27.6034 16.2126 27.6868C13.1146 28.2068 10.1897 29.4627 7.68782 31.347C5.18594 33.2313 3.18152 35.6881 1.84587 38.5074C0.510213 41.3266 -0.116961 44.4246 0.0179496 47.5364C0.15286 50.6482 1.04584 53.6814 2.62058 56.3766C4.19531 59.0719 6.40498 61.3492 9.06071 63.0138C11.7164 64.6784 14.7393 65.6808 17.8709 65.9354C21.0025 66.19 24.1497 65.6892 27.0435 64.4758C29.9374 63.2624 32.4918 61.3725 34.4886 58.9676C32.8182 56.7233 31.6221 54.1679 30.9719 51.4544C29.8638 54.0794 27.8729 56.243 25.3376 57.5776C22.8023 58.9121 19.8791 59.3352 17.0646 58.7751C14.2502 58.2149 11.7184 56.7059 9.89928 54.5046C8.08022 52.3034 7.08622 49.5456 7.08622 46.7001C7.08622 43.8545 8.08022 41.0968 9.89928 38.8955C11.7184 36.6943 14.2502 35.1853 17.0646 34.6251C19.8791 34.0649 22.8023 34.4881 25.3376 35.8226C27.8729 37.1572 29.8638 39.3208 30.9719 41.9458C31.6049 43.451 31.9317 45.0653 31.9336 46.696C31.9371 50.3748 33.0015 53.9759 35.0015 57.0747C37.0015 60.1736 39.8536 62.641 43.2215 64.186C46.5895 65.7311 50.3329 66.2894 54.0104 65.7951C57.6879 65.3007 61.1461 63.7745 63.9774 61.3961C66.8086 59.0178 68.8949 55.8866 69.9902 52.3717C71.0854 48.8568 71.1441 45.1048 70.1591 41.5579C69.1742 38.0111 67.1868 34.8174 64.4312 32.3533C61.6755 29.8892 58.2666 28.2575 54.6064 27.6505ZM37.0395 31.5323C36.499 31.6019 35.9545 31.637 35.4095 31.6373C32.3978 31.6378 29.488 30.556 27.2194 28.5924C24.9508 26.6288 23.4772 23.9165 23.0719 20.9582C22.6665 17.9999 23.3567 14.9962 25.0146 12.5038C26.6726 10.0115 29.1858 8.19941 32.0886 7.40349C34.9913 6.60758 38.0867 6.88178 40.801 8.17527C43.5154 9.46877 45.6647 11.6939 46.8506 14.4381C48.0364 17.1824 48.1785 20.2598 47.2504 23.1C46.3222 25.9401 44.3869 28.3505 41.803 29.8843L41.5096 30.0539C40.1253 30.8271 38.6033 31.3278 37.0272 31.5283L37.0395 31.5323ZM39.9938 18.4812L33.3028 28.2685C33.268 28.3226 33.2146 28.3625 33.1525 28.3808C33.0905 28.399 33.0238 28.3945 32.9649 28.368C32.9059 28.3414 32.8586 28.2947 32.8316 28.2364C32.8046 28.178 32.7997 28.112 32.8179 28.0504L34.8064 20.4564H31.0738C31.0267 20.4553 30.9808 20.442 30.9405 20.4177C30.9003 20.3935 30.8672 20.3592 30.8445 20.3184C30.8218 20.2775 30.8103 20.2314 30.8113 20.1847C30.8122 20.1381 30.8254 20.0925 30.8497 20.0525L37.557 10.257C37.5918 10.2029 37.6451 10.163 37.7072 10.1448C37.7693 10.1265 37.8359 10.1311 37.8949 10.1576C37.9538 10.1841 38.0012 10.2308 38.0282 10.2892C38.0552 10.3475 38.0601 10.4135 38.0419 10.4752L36.0493 18.0651H39.7819C39.8284 18.0674 39.8737 18.0814 39.9132 18.1059C39.9528 18.1304 39.9853 18.1645 40.0078 18.205C40.0303 18.2455 40.0419 18.291 40.0416 18.3372C40.0413 18.3835 40.029 18.4288 40.006 18.469L39.9938 18.4812ZM77.3199 12.8665H111.794V21.1108H99.63V52.9368H89.3694V21.1108H77.3199V12.8665ZM144.442 39.7362C149.169 37.3934 151.777 32.9946 151.777 26.883C151.777 17.9682 145.664 12.9392 135 12.9392H116.952V52.9288H127.217V41.6792H135.289L141.275 52.9368H152.922L144.442 39.7362ZM142.021 27.2142C142.021 31.4394 139.425 33.6772 134.992 33.6772H127.209V20.9411H134.992C139.43 20.9411 142.021 23.0497 142.021 27.2264V27.2142ZM158.207 12.927H168.467V52.9167H158.207V12.927ZM175.391 12.927H205.309V20.925H185.655V30.1953H203.748V38.1972H185.655V52.9368H175.395L175.391 12.927ZM221.311 44.9389H243.274V52.9368H211.05V12.9472H242.643V20.9452H221.311V28.8825H240.565V36.8804H221.315L221.311 44.9389ZM276.782 39.8009L282.801 46.0861C278.477 50.485 272.076 53.3973 266.139 53.3973C253.975 53.3973 244.949 44.5431 244.949 32.8289C244.949 21.2845 254.232 12.5999 266.505 12.5999C272.588 12.6751 278.403 15.0928 282.719 19.3415L276.782 26.3135C274.134 23.1143 270.214 21.1148 266.64 21.1148C260.238 21.1148 255.397 26.1438 255.397 32.7118C255.397 39.3969 260.238 44.4825 266.64 44.4825C270.038 44.4825 273.975 42.6527 276.782 39.8009ZM320.881 21.1108H308.721V52.9368H298.461V21.1148H286.411V12.8866H320.881V21.1108ZM343.008 12.9432H332.458L315.05 52.9328H325.587L328.525 45.561H346.166L349.047 52.9328H360L343.008 12.9432ZM331.537 37.8539L337.405 23.0537L343.167 37.8539H331.537Z" fill="#F15A29"></path>
</svg>